<?xml version="1.0" standalone="no"?><!DOCTYPE svg PUBLIC "-//W3C//DTD SVG 1.1//EN" "http://www.w3.org/Graphics/SVG/1.1/DTD/svg11.dtd"><svg t="1553500398537" class="icon" style="" viewBox="0 0 1024 1024" version="1.1" xmlns="http://www.w3.org/2000/svg" p-id="163475" xmlns:xlink="http://www.w3.org/1999/xlink" width="32" height="32"><defs><style type="text/css"></style></defs><path d="M179.224273 538.135697V47.800666H134.833102v490.335031c-75.189522 10.838129-133.128354 74.87341-133.128355 153.043417s57.916253 142.205288 133.128355 153.043417v179.73231h44.368591v-179.73231c75.166942-10.838129 133.105775-74.87341 133.105775-153.043417s-57.916253-142.205288-133.083195-153.043417z m-22.195586 219.607594a66.564177 66.564177 0 1 1 0-133.128354 66.564177 66.564177 0 0 1 0 133.128354z m732.138211-530.210315v-179.73231h-44.368591v179.73231c-75.189522 10.838129-133.128354 74.87341-133.128355 153.043417s57.938833 142.227867 133.128355 153.043417V1023.977421h44.368591V533.61981c75.189522-10.81555 133.105775-74.87341 133.105775-153.043417s-57.916253-142.205288-133.105775-153.043417z m-22.195585 219.607594a66.541598 66.541598 0 1 1 0-133.105775 66.541598 66.541598 0 0 1 0 133.105775z m-332.798307-86.479239V47.800666h-44.368592v312.860665c-75.189522 10.838129-133.128354 74.85083-133.128354 153.043416s57.938833 142.227867 133.128354 153.043417V1023.977421h44.368592V666.725585c75.166942-10.81555 133.128354-74.85083 133.128354-153.043417s-57.961412-142.182708-133.128354-153.020837z m-22.195585 219.585014a66.564177 66.564177 0 1 1 0.045158-133.128354 66.564177 66.564177 0 0 1-0.045158 133.128354z" fill="#e6e6e6" p-id="163476"></path></svg>