<!DOCTYPE svg PUBLIC "-//W3C//DTD SVG 1.1//EN" "http://www.w3.org/Graphics/SVG/1.1/DTD/svg11.dtd"><svg class="icon" viewBox="0 0 1024 1024" version="1" xmlns="http://www.w3.org/2000/svg" width="200" height="200"><defs><style/></defs><path d="M179 538V48h-44v490a155 155 0 0 0 0 306v180h44V844a155 155 0 0 0 0-306zm-22 220a67 67 0 1 1 0-133 67 67 0 0 1 0 133zm732-530V48h-44v180a155 155 0 0 0 0 306v490h44V534a155 155 0 0 0 0-306zm-22 219a67 67 0 1 1 0-133 67 67 0 0 1 0 133zm-333-86V48h-44v313a155 155 0 0 0 0 306v357h44V667a155 155 0 0 0 0-306zm-22 219a67 67 0 1 1 0-133 67 67 0 0 1 0 133z" fill="#fff"/></svg>